<svg width="40" height="40" viewBox="0 0 40 40" fill="none" xmlns="http://www.w3.org/2000/svg">
    <path d="m23.75 3.767-.133-.067-.017.033c-1.167-.25-2.367-.4-3.6-.4C10.8 3.333 3.333 10.8 3.333 20c0 9.2 7.467 16.667 16.667 16.667 9.2 0 16.667-7.467 16.667-16.667 0-7.917-5.517-14.533-12.917-16.233zM32.35 15H19.033l4.517-7.833c4 1.1 7.25 4.033 8.8 7.833zM21.833 6.8 17.117 15 15.2 18.333 10.667 10.5A13.264 13.264 0 0 1 20 6.667c.617 0 1.233.05 1.833.133zM9.5 11.817 14.233 20l1.917 3.333H7.1A13.736 13.736 0 0 1 6.667 20c0-3.083 1.066-5.917 2.833-8.183zM7.65 25h13.3l-4.517 7.833A13.388 13.388 0 0 1 7.65 25zm10.517 8.183 6.65-11.516L29.35 29.5A13.333 13.333 0 0 1 20 33.333a13.17 13.17 0 0 1-1.833-.15zm12.333-5-6.667-11.516h9.05c.284 1.066.45 2.183.45 3.333 0 3.083-1.066 5.917-2.833 8.183z" fill="#3C3C3C"/>
</svg>
