<svg width="204" height="40" viewBox="0 0 204 40" fill="none" xmlns="http://www.w3.org/2000/svg">
    <path d="M50.596 30V9.812h3.024v17.164h17.136V30h-20.16zm25.348 0c-1.008 0-1.866-.355-2.576-1.064-.709-.71-1.064-1.568-1.064-2.576v-12.6h3.024v12.18c0 .41.066.69.196.84.15.13.43.196.84.196h8.4c.411 0 .682-.065.812-.196.15-.15.224-.43.224-.84V13.76h3.024v12.6c0 1.008-.354 1.867-1.064 2.576-.709.71-1.568 1.064-2.576 1.064h-9.24zm18.793 0c-1.008 0-1.866-.355-2.576-1.064-.71-.71-1.064-1.568-1.064-2.576V17.4c0-1.008.355-1.867 1.064-2.576.71-.71 1.568-1.064 2.576-1.064h9.856V8.44h3.024V30h-12.88zm.448-3.024h8.4c.411 0 .681-.065.812-.196.131-.15.196-.43.196-.84v-8.12c0-.41-.065-.681-.196-.812-.131-.15-.401-.224-.812-.224h-8.4c-.41 0-.69.075-.84.224-.13.13-.196.401-.196.812v8.12c0 .41.066.69.196.84.15.13.43.196.84.196zm15.4 3.024V13.76h3.024V30h-3.024zm0-18.536V8.44h3.024v3.024h-3.024zM120.38 30c-1.008 0-1.867-.355-2.576-1.064a3.51 3.51 0 0 1-1.064-2.576V13.48a3.51 3.51 0 0 1 1.064-2.576c.709-.71 1.568-1.064 2.576-1.064h16.464v3.024H120.8c-.411 0-.691.075-.84.224-.131.13-.196.401-.196.812v12.04c0 .41.065.69.196.84.149.13.429.196.84.196h16.044V30H120.38zm22.911 0a3.51 3.51 0 0 1-2.576-1.064 3.51 3.51 0 0 1-1.064-2.576v-5.992h13.468V17.82c0-.41-.065-.681-.196-.812-.13-.15-.401-.224-.812-.224h-12.46V13.76h12.88c1.008 0 1.867.355 2.576 1.064.71.71 1.064 1.568 1.064 2.576V30h-12.88zm.42-3.024h9.408v-3.78h-10.444v2.744c0 .41.066.69.196.84.15.13.43.196.84.196zM158.492 30V13.76h20.748c1.008 0 1.867.355 2.576 1.064.71.71 1.064 1.568 1.064 2.576V30h-2.996V17.82c0-.41-.074-.681-.224-.812-.13-.15-.401-.224-.812-.224h-5.572c-.429 0-.709.075-.84.224-.13.13-.196.401-.196.812V30h-3.052V17.82c0-.41-.074-.681-.224-.812-.13-.15-.401-.224-.812-.224h-5.6c-.41 0-.681.075-.812.224-.13.13-.196.401-.196.812V30h-3.052zm30.844 0c-1.008 0-1.867-.355-2.576-1.064-.71-.71-1.064-1.568-1.064-2.576v-.42h3.024v.168c0 .299.065.523.196.672.149.13.373.196.672.196h8.736c.298 0 .513-.065.644-.196.13-.15.196-.373.196-.672V24.26c0-.299-.066-.513-.196-.644-.131-.15-.346-.224-.644-.224h-8.988c-1.008 0-1.867-.355-2.576-1.064-.71-.71-1.064-1.568-1.064-2.576V17.4c0-1.008.354-1.867 1.064-2.576.709-.71 1.568-1.064 2.576-1.064h9.24a3.51 3.51 0 0 1 2.576 1.064 3.51 3.51 0 0 1 1.064 2.576v.42h-3.052v-.168c0-.299-.066-.513-.196-.644-.131-.15-.346-.224-.644-.224h-8.736c-.299 0-.523.075-.672.224-.131.13-.196.345-.196.644V19.5c0 .299.065.523.196.672.149.13.373.196.672.196h8.988a3.51 3.51 0 0 1 2.576 1.064 3.51 3.51 0 0 1 1.064 2.576v2.352a3.51 3.51 0 0 1-1.064 2.576A3.51 3.51 0 0 1 198.576 30h-9.24zM23.75 3.767l-.133-.067-.017.033c-1.167-.25-2.367-.4-3.6-.4C10.8 3.333 3.333 10.8 3.333 20c0 9.2 7.467 16.667 16.667 16.667 9.2 0 16.667-7.467 16.667-16.667 0-7.917-5.517-14.533-12.917-16.233zM32.35 15H19.033l4.517-7.833c4 1.1 7.25 4.033 8.8 7.833zM21.833 6.8 17.117 15 15.2 18.333 10.667 10.5A13.264 13.264 0 0 1 20 6.667c.617 0 1.233.05 1.833.133zM9.5 11.817 14.233 20l1.917 3.333H7.1A13.736 13.736 0 0 1 6.667 20c0-3.083 1.066-5.917 2.833-8.183zM7.65 25h13.3l-4.517 7.833A13.388 13.388 0 0 1 7.65 25zm10.517 8.183 6.65-11.516L29.35 29.5A13.333 13.333 0 0 1 20 33.333a13.17 13.17 0 0 1-1.833-.15zm12.333-5-6.667-11.516h9.05c.284 1.066.45 2.183.45 3.333 0 3.083-1.066 5.917-2.833 8.183z" fill="#3C3C3C"/>
</svg>
